<svg xmlns="http://www.w3.org/2000/svg" viewBox="0 0 22.42 22.42"><defs><style>.cls-1{fill:#fdc20f;}</style></defs><title>Ресурс 5</title><g id="Слой_2" data-name="Слой 2"><g id="hobots.io"><g id="футер_выпад._аним._элемент_" data-name="футер (выпад. аним. элемент)"><g id="контакты"><g id="соцсети"><g id="биткоинтолк"><g id="иконка_при_курсоре" data-name="иконка при курсоре"><path class="cls-1" d="M13.23,12.19A1.39,1.39,0,0,0,12.8,12a3.59,3.59,0,0,0-.48-.14,4.29,4.29,0,0,0-.54-.07l-.51,0h-.82v2.48h1l.43,0,.42-.06a2.8,2.8,0,0,0,.41-.1,2.47,2.47,0,0,0,.35-.15,1,1,0,0,0,.29-.22,1,1,0,0,0,.18-.29,1,1,0,0,0,.07-.37,1,1,0,0,0-.11-.47A1.1,1.1,0,0,0,13.23,12.19Z"/><path class="cls-1" d="M11.21,3.08a8.13,8.13,0,1,0,8.13,8.13A8.13,8.13,0,0,0,11.21,3.08Zm4.63,10.13a2.78,2.78,0,0,1-.24.92,2,2,0,0,1-.47.65,2.41,2.41,0,0,1-.71.43,4.37,4.37,0,0,1-.89.25,8.93,8.93,0,0,1-1.07.11v1.87H11.32V15.61h-.9v1.85H9.3V15.58H7l.23-1.34h.82a.39.39,0,0,0,.43-.37v-3h0V8.79a.58.58,0,0,0-.65-.5H7V7.08H9.3V5.23h1.13V7h.9V5.23h1.13V7.08a6.59,6.59,0,0,1,1,.16,3.36,3.36,0,0,1,.83.33,1.68,1.68,0,0,1,.61.57,1.88,1.88,0,0,1,.27.84,1.74,1.74,0,0,1-1,1.9,2.2,2.2,0,0,1,1.29.76A2.17,2.17,0,0,1,15.84,13.22Z"/><path class="cls-1" d="M10.45,10.62h1l.4,0,.38-.08a1.25,1.25,0,0,0,.36-.14,2,2,0,0,0,.27-.2.71.71,0,0,0,.2-.28,1,1,0,0,0,.07-.37A1,1,0,0,0,13,9.07a1,1,0,0,0-.22-.31,1.09,1.09,0,0,0-.35-.21,2.53,2.53,0,0,0-.4-.12l-.45-.06-.43,0h-.69Z"/><path class="cls-1" d="M11.21,0A11.21,11.21,0,1,0,22.42,11.21,11.21,11.21,0,0,0,11.21,0Zm0,21.54A10.32,10.32,0,1,1,21.53,11.21,10.32,10.32,0,0,1,11.21,21.54Z"/></g></g></g></g></g></g></g></svg>